<svg height="512" viewBox="0 0 512 512" width="512" xmlns="http://www.w3.org/2000/svg"><g><g><g><path d="m496 128v248h-480v-248a24.006 24.006 0 0 1 24-24h432a24.006 24.006 0 0 1 24 24z" fill="#83d8f4"/><path d="m496 376v24a24.006 24.006 0 0 1 -24 24h-432a24.006 24.006 0 0 1 -24-24v-24z" fill="#e0e0e2"/><path d="m312 472h-112l16-48h80z" fill="#57565c"/><path d="m168 472h176v24h-176z" fill="#e0e0e2"/><path d="m336 80v96q-79.995 32-160 0v-96" fill="#2d2d30"/><circle cx="360" cy="208" fill="#ffda44" r="16"/><path d="m256 112-120-48 120-48 120 48z" fill="#3e3d42"/></g><path d="m80 248h160v96h-160z" fill="#ffda44"/></g><g><path d="m472 96h-104v-20.18l10.97-4.39a8 8 0 0 0 0-14.86l-120-48a8.023 8.023 0 0 0 -5.94 0l-120 48a8 8 0 0 0 0 14.86l34.97 13.99v10.58h-128a32.03 32.03 0 0 0 -32 32v272a32.03 32.03 0 0 0 32 32h164.9l-10.67 32h-26.23a8 8 0 0 0 -8 8v24a8 8 0 0 0 8 8h176a8 8 0 0 0 8-8v-24a8 8 0 0 0 -8-8h-26.23l-10.67-32h164.9a32.03 32.03 0 0 0 32-32v-272a32.03 32.03 0 0 0 -32-32zm-104 112a8 8 0 1 1 -8-8 8.011 8.011 0 0 1 8 8zm-210.46-144 98.46-39.38 98.46 39.38-98.46 39.38zm194.46 18.22v13.78h-8v-10.58zm-24 9.6v78.7c-47.8 17.85-96.2 17.85-144 0v-78.7l69.03 27.61a8.023 8.023 0 0 0 5.94 0zm8 388.18v8h-160v-8zm-124.9-16 10.67-32h68.46l10.67 32zm276.9-64a16.021 16.021 0 0 1 -16 16h-432a16.021 16.021 0 0 1 -16-16v-16h464zm0-32h-464v-240a16.021 16.021 0 0 1 16-16h128v64a8.006 8.006 0 0 0 5.03 7.43c27.53 11.01 55.25 16.51 82.97 16.51s55.44-5.5 82.97-16.51a8.006 8.006 0 0 0 5.03-7.43v-64h8v72a8.451 8.451 0 0 0 .12 1.34 24 24 0 1 0 15.76 0 8.451 8.451 0 0 0 .12-1.34v-72h104a16.021 16.021 0 0 1 16 16z"/><path d="m96 392h-48a8 8 0 0 0 0 16h48a8 8 0 0 0 0-16z"/><path d="m128 392h-8a8 8 0 0 0 0 16h8a8 8 0 0 0 0-16z"/><path d="m80 352h160a8 8 0 0 0 8-8v-96a8 8 0 0 0 -8-8h-160a8 8 0 0 0 -8 8v96a8 8 0 0 0 8 8zm8-96h144v80h-144z"/><path d="m80 232h64a8 8 0 0 0 0-16h-64a8 8 0 0 0 0 16z"/><path d="m80 208h24a8 8 0 0 0 0-16h-24a8 8 0 0 0 0 16z"/><path d="m272 256h160a8 8 0 0 0 0-16h-160a8 8 0 0 0 0 16z"/><path d="m272 280h160a8 8 0 0 0 0-16h-160a8 8 0 0 0 0 16z"/><path d="m272 304h127a8 8 0 0 0 0-16h-127a8 8 0 0 0 0 16z"/><path d="m432 288h-8a8 8 0 0 0 0 16h8a8 8 0 0 0 0-16z"/><path d="m272 328h160a8 8 0 0 0 0-16h-160a8 8 0 0 0 0 16z"/><path d="m272 352h127a8 8 0 0 0 0-16h-127a8 8 0 0 0 0 16z"/><path d="m432 336h-8a8 8 0 0 0 0 16h8a8 8 0 0 0 0-16z"/></g></g></svg>