<svg height="512" viewBox="0 0 512 512" width="512" xmlns="http://www.w3.org/2000/svg"><g id="Filled_outline" data-name="Filled outline"><path d="m380.42 272.25-2.64 23.75-1.78 16h-224l-1.78-16-2.64-23.75a123.092 123.092 0 0 1 9.2-62.07 123.208 123.208 0 0 0 9.8-54.63l-1.39-27.68a98.933 98.933 0 1 1 197.62 0l-1.39 27.68a123.208 123.208 0 0 0 9.8 54.63 123.028 123.028 0 0 1 9.2 62.07z" fill="#8f4d2e"/><path d="m380.42 272.25-2.64 23.75h-89.78v-88l16-32v-64a88.087 88.087 0 0 0 -64.74-84.89 99.043 99.043 0 0 1 123.55 100.76l-1.39 27.68a123.208 123.208 0 0 0 9.8 54.63 123.028 123.028 0 0 1 9.2 62.07z" fill="#82462a"/><path d="m307.2 280a11.194 11.194 0 0 1 -11.2-11.2v-52.8h-64v52.8a11.194 11.194 0 0 1 -11.2 11.2h-12.8v48h112v-48z" fill="#fec9a3"/><path d="m268.824 256a43.894 43.894 0 0 0 27.176-9.807v-30.193h-64v30.19a43.894 43.894 0 0 0 27.176 9.81z" fill="#feb784"/><path d="m336 128v40a72 72 0 0 1 -144 0v-40a108.535 108.535 0 0 0 36.9-41.8l3.1-6.2 4.54 3.79a199.241 199.241 0 0 0 67.46 36.9 199.509 199.509 0 0 0 32 7.31z" fill="#fec9a3"/><path d="m336 128v40a72.035 72.035 0 0 1 -58.26 70.69 87.683 87.683 0 0 0 26.26-62.69v-55.31a199.509 199.509 0 0 0 32 7.31z" fill="#fec093"/><path d="m224 312h80v56h-80z" fill="#e0e0de"/><path d="m426.97 487.67a24.282 24.282 0 0 1 -26.97-16.11l-52.84-99.13a62.3 62.3 0 0 1 -11.16 59.57v64h-144v-64a62.4 62.4 0 0 1 -11.04-60.31l-53.7 99.87a24.273 24.273 0 0 1 -46.09-15.24l58.74-146.21a47.985 47.985 0 0 1 44.54-30.11h31.55l48 88 48-88h31.43a48.041 48.041 0 0 1 44.6 30.27l58.07 146.05a24.287 24.287 0 0 1 -19.13 31.35z" fill="#ec8c8c"/><path d="m74.23 459.01 5.77-75.01h48v77.075a26.925 26.925 0 0 1 -26.925 26.925 26.924 26.924 0 0 1 -26.845-28.99z" fill="#f59898"/><path d="m98.821 267.3a15.562 15.562 0 0 0 -10.145 22.057l7.324 14.643h-28.669a48 48 0 0 1 -21.466-5.067l-7.972-3.986a9.6 9.6 0 0 0 -13.893 8.586v22.578a16 16 0 0 0 8.845 14.311l13.02 6.511a48 48 0 0 0 21.466 5.067h60.669v-48l-10.955-27.387a15.562 15.562 0 0 0 -18.224-9.313z" fill="#fec9a3"/><path d="m80 352h48v32h-48z" fill="#e0e0de"/><path d="m426.97 487.67a24.282 24.282 0 0 1 -26.97-16.11l-52.84-99.13a62.3 62.3 0 0 1 -11.16 59.57v64h-141.37c66.03-43.12 121.74-97.84 168.5-211.76a47.923 47.923 0 0 1 24.9 26.03l58.07 146.05a24.287 24.287 0 0 1 -19.13 31.35z" fill="#e07f7f"/><path d="m376 464-80-16v-112l80 16z" fill="#a36548"/><path d="m408 464 80-16v-112l-80 16z" fill="#8f4d2e"/><path d="m376 352h32v112h-32z" fill="#95573a"/><path d="m392 352a28.332 28.332 0 0 0 -23.673-27.946l-72.327-12.054v24l80 16h16a28.332 28.332 0 0 1 23.673-27.946l72.327-12.054v24l-80 16z" fill="#d4bd81"/><path d="m473.315 463.237-32 5.334a8 8 0 0 1 -9.315-7.891v-29.735a10.413 10.413 0 0 1 8.7-10.272l27.172-4.529a10.414 10.414 0 0 1 12.128 10.273v28.929a8 8 0 0 1 -6.685 7.891z" fill="#fec9a3"/><path d="m228 136a12 12 0 1 0 12 12 12.013 12.013 0 0 0 -12-12z"/><path d="m300 136a12 12 0 1 0 12 12 12.013 12.013 0 0 0 -12-12z"/><path d="m264 184a8.009 8.009 0 0 1 -8-8h-16a24 24 0 0 0 48 0h-16a8.009 8.009 0 0 1 -8 8z"/><path d="m493.171 305.9a8.011 8.011 0 0 0 -6.486-1.788l-72.327 12.055a36.4 36.4 0 0 0 -13.4 5.078l-5.513-13.92a53.285 53.285 0 0 0 -9.18-15.327l2.087-18.917a138.572 138.572 0 0 0 .844-14.517 130.564 130.564 0 0 0 -10.645-51.547 115.553 115.553 0 0 1 -9.125-51.1l1.361-27.691c.083-1.745.169-3.55.169-5.341a107.041 107.041 0 0 0 -106.956-106.885 106.941 106.941 0 0 0 -106.79 112.232l1.356 27.6c.08 2.061.154 4.007.154 5.933a114.046 114.046 0 0 1 -9.273 45.249 130.724 130.724 0 0 0 -9.8 66.118l2.081 18.656a54.31 54.31 0 0 0 -6.336 9.162l-10.921-27.3a23.563 23.563 0 1 0 -42.952 19.289l1.537 3.061h-15.725a40.2 40.2 0 0 1 -17.888-4.223l-7.972-3.986a17.6 17.6 0 0 0 -25.471 15.742v22.578a23.868 23.868 0 0 0 13.267 21.466l13.021 6.511a56.284 56.284 0 0 0 25.043 5.912h4.669v23.691l-5.747 74.709a34.925 34.925 0 0 0 34.822 37.6q.888 0 1.766-.045c.51.024 1.019.044 1.526.044a32.2 32.2 0 0 0 30.25-21.151l36.519-67.9a69.974 69.974 0 0 0 12.864 27.852v61.2h16v-64a8 8 0 0 0 -1.854-5.121 54.544 54.544 0 0 1 6.976-76.733l-10.244-12.292a70.515 70.515 0 0 0 -9.939 10.146 8.225 8.225 0 0 0 -.827 1l-.018-.01-.142.249c-.036.056-.065.118-.1.175a70.053 70.053 0 0 0 -10.4 19.443l-37.452 69.643v-97.193l11.368-28.307a38.344 38.344 0 0 1 8.419-12.912 40.489 40.489 0 0 1 28.693-12.088h26.771l45.726 83.831a8 8 0 0 0 14.046 0l16.977-31.124v107.293a8 8 0 0 0 6.431 7.845l33.569 6.714v33.441h16v-30.242l30.608 6.113c.2.035 1.127.129 1.392.129h15.135l1.536 2.862a32.409 32.409 0 0 0 30.369 21.138 30.12 30.12 0 0 0 5.273-.436 32.423 32.423 0 0 0 25.041-20.889l21.276-3.546a15.934 15.934 0 0 0 13.333-14.963l1.6-.321a8 8 0 0 0 6.437-7.845v-136a8 8 0 0 0 -2.829-6.1zm-264.6-19.555a19.216 19.216 0 0 0 11.429-17.545v-24.483a80.039 80.039 0 0 0 48 0v24.483a19.216 19.216 0 0 0 11.428 17.541l-9.628 17.659h-51.6zm35.429-54.345a64.072 64.072 0 0 1 -64-64v-35.816a116.869 116.869 0 0 0 34.624-39.637 207.224 207.224 0 0 0 93.376 42.273v33.18a64.072 64.072 0 0 1 -64 64zm108.115 68.225.148.152a37.073 37.073 0 0 1 8.3 12.81l3.437 8.677a36.387 36.387 0 0 0 -14.357-5.7l-62.567-10.428 9.673-17.736h26.691a39.635 39.635 0 0 1 28.675 12.225zm4.677 43.775-36.4-7.279-36.4-7.28v-8l63.012 10.5a20.263 20.263 0 0 1 15.372 12.059zm40.2-12.054 63.008-10.503v8l-37.627 7.526-35.165 7.031h-5.584a20.263 20.263 0 0 1 15.365-12.054zm-367.549 7.831-13.021-6.51a7.958 7.958 0 0 1 -4.422-7.156v-22.578a1.534 1.534 0 0 1 .759-1.361 1.526 1.526 0 0 1 1.556-.07l7.973 3.986a56.284 56.284 0 0 0 25.043 5.912h28.669a8 8 0 0 0 7.155-11.578l-7.323-14.648a7.56 7.56 0 0 1 4.929-10.717 7.589 7.589 0 0 1 8.855 4.527l10.384 25.957v38.459h-52.669a40.2 40.2 0 0 1 -17.888-4.223zm70.557 20.223v16h-32v-16zm-37.793 99.624 5.201-67.624h32.592v69.075a18.936 18.936 0 0 1 -17.555 18.856 8.169 8.169 0 0 0 -.9.045c-.158 0-.311.024-.47.024a18.922 18.922 0 0 1 -18.868-20.376zm101.921-110.614a8 8 0 0 1 .509-.618c-.164.209-.323.421-.485.631zm-27.662-69.452-.917-8.221a114.7 114.7 0 0 1 8.6-58.021 129.949 129.949 0 0 0 10.571-51.556c0-2.235-.084-4.427-.17-6.633l-1.36-27.684a90.941 90.941 0 1 1 181.77-4.563c0 1.41-.073 2.949-.15 4.567l-1.359 27.662a131.612 131.612 0 0 0 10.392 58.191 114.657 114.657 0 0 1 9.357 45.26 122.558 122.558 0 0 1 -.752 12.8l-.909 8.244a55.951 55.951 0 0 0 -28.099-7.604h-36.24a3.243 3.243 0 0 1 -3.2-3.2v-31.563a80.026 80.026 0 0 0 40-69.237v-40a8 8 0 0 0 -6.869-7.92 191.273 191.273 0 0 1 -95.466-42.439l-4.543-3.787a8 8 0 0 0 -12.277 2.568l-3.1 6.2a100.785 100.785 0 0 1 -34.182 38.721 8 8 0 0 0 -3.563 6.657v40a80.026 80.026 0 0 0 40 69.237v31.563a3.243 3.243 0 0 1 -3.2 3.2h-36.32a56.358 56.358 0 0 0 -28.014 7.558zm107.534 71.735-17.069-31.293h34.138zm40-5.534 64 12.8v95.682l-64-12.8zm80 14.241h16v96h-16zm41.568 119.8a14.308 14.308 0 0 1 -2.528.2 16.39 16.39 0 0 1 -14.1-8.061c.151-.017.3-.042.449-.068.059-.011.118-.015.177-.026h.013l.055-.011 16.445-3.289a15.791 15.791 0 0 0 8.056 7.015 16.678 16.678 0 0 1 -8.567 4.24zm46.432-24.454-32 5.334v-29.735a2.408 2.408 0 0 1 2.017-2.381l27.173-4.529a2.621 2.621 0 0 1 .41-.035 2.416 2.416 0 0 1 2.4 2.416l.006 28.928zm-5.442-47.093-27.172 4.528a18.357 18.357 0 0 0 -15.386 18.164v21.7l-8 1.6v-95.686l64-12.8v65.479a18.361 18.361 0 0 0 -13.441-2.985z"/></g></svg>